RobotoFlex_SPAC-100.ufo
<glyph name="parenright" format="2">
  <advance width="560"/>
  <unicode hex="0029"/>
  <outline>
    <contour>
      <point x="10" y="-436" type="qcurve"/>
      <point x="10" y="-256" type="line"/>
      <point x="134" y="-180"/>
      <point x="355" y="193"/>
      <point x="355" y="508" type="qcurve" smooth="yes"/>
      <point x="355" y="532" type="line" smooth="yes"/>
      <point x="355" y="861"/>
      <point x="134" y="1220"/>
      <point x="10" y="1296" type="qcurve"/>
      <point x="10" y="1476" type="line"/>
      <point x="214" y="1380"/>
      <point x="550" y="917"/>
      <point x="550" y="525" type="qcurve" smooth="yes"/>
      <point x="550" y="515" type="line" smooth="yes"/>
      <point x="550" y="140"/>
      <point x="214" y="-340"/>
    </contour>
  </outline>
</glyph>
<glyph name="zero" format="2">
  <advance width="956"/>
  <unicode hex="0030"/>
  <outline>
    <contour>
      <point x="10" y="460" type="qcurve" smooth="yes"/>
      <point x="10" y="996" type="line" smooth="yes"/>
      <point x="10" y="1216"/>
      <point x="258" y="1486"/>
      <point x="478" y="1486" type="qcurve" smooth="yes"/>
      <point x="696" y="1486"/>
      <point x="946" y="1216"/>
      <point x="946" y="996" type="qcurve" smooth="yes"/>
      <point x="946" y="460" type="line" smooth="yes"/>
      <point x="946" y="240"/>
      <point x="696" y="-30"/>
      <point x="478" y="-30" type="qcurve" smooth="yes"/>
      <point x="258" y="-30"/>
      <point x="10" y="240"/>
    </contour>
    <contour>
      <point x="204" y="450" type="line" smooth="yes"/>
      <point x="204" y="310"/>
      <point x="338" y="128"/>
      <point x="478" y="128" type="qcurve" smooth="yes"/>
      <point x="618" y="128"/>
      <point x="752" y="310"/>
      <point x="752" y="450" type="qcurve" smooth="yes"/>
      <point x="752" y="1006" type="line" smooth="yes"/>
      <point x="752" y="1146"/>
      <point x="618" y="1328"/>
      <point x="478" y="1328" type="qcurve" smooth="yes"/>
      <point x="338" y="1328"/>
      <point x="204" y="1146"/>
      <point x="204" y="1006" type="qcurve" smooth="yes"/>
    </contour>
  </outline>
</glyph>
<glyph name="equal" format="2">
  <advance width="930"/>
  <unicode hex="003D"/>
  <outline>
    <contour>
      <point x="10" y="381" type="line"/>
      <point x="10" y="550" type="line"/>
      <point x="920" y="550" type="line"/>
      <point x="920" y="381" type="line"/>
    </contour>
    <contour>
      <point x="10" y="776" type="line"/>
      <point x="10" y="945" type="line"/>
      <point x="920" y="945" type="line"/>
      <point x="920" y="776" type="line"/>
    </contour>
  </outline>
</glyph>
<glyph name="C" format="2">
  <advance width="1180"/>
  <unicode hex="0043"/>
  <anchor x="605" y="0" name="bottom"/>
  <anchor x="615" y="1456" name="top"/>
  <outline>
    <contour>
      <point x="10" y="682" type="qcurve" smooth="yes"/>
      <point x="10" y="774" type="line" smooth="yes"/>
      <point x="10" y="1110"/>
      <point x="355" y="1486"/>
      <point x="615" y="1486" type="qcurve" smooth="yes"/>
      <point x="875" y="1486"/>
      <point x="1170" y="1201"/>
      <point x="1170" y="1000" type="qcurve" smooth="yes"/>
      <point x="1170" y="990" type="line"/>
      <point x="978" y="990" type="line"/>
      <point x="978" y="1000" type="line" smooth="yes"/>
      <point x="978" y="1139"/>
      <point x="798" y="1322"/>
      <point x="615" y="1322" type="qcurve" smooth="yes"/>
      <point x="436" y="1322"/>
      <point x="204" y="1052"/>
      <point x="204" y="774" type="qcurve" smooth="yes"/>
      <point x="204" y="682" type="line" smooth="yes"/>
      <point x="204" y="426"/>
      <point x="435" y="134"/>
      <point x="615" y="134" type="qcurve" smooth="yes"/>
      <point x="787" y="134"/>
      <point x="963" y="320"/>
      <point x="977" y="456" type="qcurve" smooth="yes"/>
      <point x="978" y="466" type="line"/>
      <point x="1170" y="466" type="line"/>
      <point x="1169" y="456" type="line" smooth="yes"/>
      <point x="1149" y="256"/>
      <point x="875" y="-30"/>
      <point x="615" y="-30" type="qcurve" smooth="yes"/>
      <point x="355" y="-30"/>
      <point x="10" y="346"/>
    </contour>
  </outline>
</glyph>
<glyph name="D" format="2">
  <advance width="1105"/>
  <unicode hex="0044"/>
  <anchor x="470" y="0" name="bottom"/>
  <anchor x="162" y="728" name="center"/>
  <anchor x="470" y="1456" name="top"/>
  <outline>
    <contour>
      <point x="10" y="0" type="line"/>
      <point x="10" y="1456" type="line"/>
      <point x="442" y="1456" type="line" smooth="yes"/>
      <point x="722" y="1456"/>
      <point x="1095" y="1086"/>
      <point x="1095" y="774" type="qcurve" smooth="yes"/>
      <point x="1095" y="682" type="line" smooth="yes"/>
      <point x="1095" y="370"/>
      <point x="722" y="0"/>
      <point x="442" y="0" type="qcurve" smooth="yes"/>
    </contour>
    <contour>
      <point x="202" y="158" type="line"/>
      <point x="442" y="158" type="line" smooth="yes"/>
      <point x="652" y="158"/>
      <point x="901" y="436"/>
      <point x="901" y="682" type="qcurve" smooth="yes"/>
      <point x="901" y="774" type="line" smooth="yes"/>
      <point x="901" y="1020"/>
      <point x="652" y="1298"/>
      <point x="442" y="1298" type="qcurve" smooth="yes"/>
      <point x="202" y="1298" type="line"/>
    </contour>
  </outline>
</glyph>
<glyph name="M" format="2">
  <advance width="1470"/>
  <unicode hex="004D"/>
  <anchor x="735" y="0" name="bottom"/>
  <anchor x="735" y="1456" name="top"/>
  <outline>
    <contour>
      <point x="10" y="0" type="line"/>
      <point x="10" y="1456" type="line"/>
      <point x="258" y="1456" type="line"/>
      <point x="690" y="361" type="line" smooth="yes"/>
      <point x="702" y="331"/>
      <point x="723" y="266"/>
      <point x="731" y="236" type="qcurve"/>
      <point x="739" y="236" type="line"/>
      <point x="747" y="266"/>
      <point x="768" y="331"/>
      <point x="780" y="361" type="qcurve" smooth="yes"/>
      <point x="1212" y="1456" type="line"/>
      <point x="1460" y="1456" type="line"/>
      <point x="1460" y="0" type="line"/>
      <point x="1274" y="0" type="line"/>
      <point x="1274" y="1050" type="line" smooth="yes"/>
      <point x="1274" y="1080"/>
      <point x="1276" y="1155"/>
      <point x="1280" y="1185" type="qcurve"/>
      <point x="1272" y="1185" type="line"/>
      <point x="1266" y="1155"/>
      <point x="1242" y="1080"/>
      <point x="1230" y="1050" type="qcurve" smooth="yes"/>
      <point x="816" y="0" type="line"/>
      <point x="650" y="0" type="line"/>
      <point x="236" y="1050" type="line" smooth="yes"/>
      <point x="224" y="1080"/>
      <point x="200" y="1155"/>
      <point x="194" y="1185" type="qcurve"/>
      <point x="186" y="1185" type="line"/>
      <point x="190" y="1155"/>
      <point x="192" y="1080"/>
      <point x="192" y="1050" type="qcurve" smooth="yes"/>
      <point x="192" y="0" type="line"/>
    </contour>
  </outline>
</glyph>
<glyph name="N" format="2">
  <advance width="1140"/>
  <unicode hex="004E"/>
  <anchor x="570" y="0" name="bottom"/>
  <anchor x="570" y="1456" name="top"/>
  <outline>
    <contour>
      <point x="10" y="0" type="line"/>
      <point x="10" y="1456" type="line"/>
      <point x="210" y="1456" type="line"/>
      <point x="869" y="436" type="line" smooth="yes"/>
      <point x="889" y="406"/>
      <point x="924" y="346"/>
      <point x="936" y="321" type="qcurve"/>
      <point x="944" y="321" type="line"/>
      <point x="943" y="351"/>
      <point x="942" y="426"/>
      <point x="942" y="456" type="qcurve" smooth="yes"/>
      <point x="942" y="1456" type="line"/>
      <point x="1130" y="1456" type="line"/>
      <point x="1130" y="0" type="line"/>
      <point x="930" y="0" type="line"/>
      <point x="271" y="1020" type="line" smooth="yes"/>
      <point x="251" y="1050"/>
      <point x="217" y="1110"/>
      <point x="203" y="1135" type="qcurve"/>
      <point x="196" y="1135" type="line"/>
      <point x="197" y="1105"/>
      <point x="198" y="1030"/>
      <point x="198" y="1000" type="qcurve" smooth="yes"/>
      <point x="198" y="0" type="line"/>
    </contour>
  </outline>
</glyph>
<glyph name="R" format="2">
  <advance width="1060"/>
  <unicode hex="0052"/>
  <anchor x="445" y="0" name="bottom"/>
  <anchor x="445" y="1456" name="top"/>
  <outline>
    <contour>
      <point x="10" y="0" type="line"/>
      <point x="10" y="1456" type="line"/>
      <point x="484" y="1456" type="line" smooth="yes"/>
      <point x="718" y="1456"/>
      <point x="972" y="1222"/>
      <point x="972" y="1028" type="qcurve" smooth="yes"/>
      <point x="972" y="834"/>
      <point x="718" y="594"/>
      <point x="484" y="594" type="qcurve" smooth="yes"/>
      <point x="202" y="594" type="line"/>
      <point x="202" y="0" type="line"/>
    </contour>
    <contour>
      <point x="202" y="750" type="line"/>
      <point x="484" y="750" type="line" smooth="yes"/>
      <point x="650" y="750"/>
      <point x="780" y="912"/>
      <point x="780" y="1028" type="qcurve" smooth="yes"/>
      <point x="780" y="1144"/>
      <point x="650" y="1300"/>
      <point x="484" y="1300" type="qcurve" smooth="yes"/>
      <point x="202" y="1300" type="line"/>
    </contour>
    <contour>
      <point x="836" y="0" type="line"/>
      <point x="480" y="672" type="line"/>
      <point x="670" y="701" type="line"/>
      <point x="1050" y="0" type="line"/>
    </contour>
  </outline>
</glyph>
<glyph name="W" format="2">
  <advance width="1732"/>
  <unicode hex="0057"/>
  <anchor x="866" y="0" name="bottom"/>
  <anchor x="866" y="1456" name="top"/>
  <outline>
    <contour>
      <point x="368" y="-10" type="line"/>
      <point x="10" y="1456" type="line"/>
      <point x="202" y="1456" type="line"/>
      <point x="450" y="378" type="line" smooth="yes"/>
      <point x="458" y="344"/>
      <point x="465" y="303"/>
      <point x="469" y="270" type="qcurve"/>
      <point x="479" y="270" type="line"/>
      <point x="483" y="303"/>
      <point x="490" y="344"/>
      <point x="499" y="378" type="qcurve" smooth="yes"/>
      <point x="770" y="1456" type="line"/>
      <point x="964" y="1456" type="line"/>
      <point x="1245" y="378" type="line" smooth="yes"/>
      <point x="1254" y="344"/>
      <point x="1261" y="303"/>
      <point x="1265" y="270" type="qcurve"/>
      <point x="1274" y="270" type="line"/>
      <point x="1278" y="303"/>
      <point x="1286" y="344"/>
      <point x="1294" y="378" type="qcurve" smooth="yes"/>
      <point x="1532" y="1456" type="line"/>
      <point x="1722" y="1456" type="line"/>
      <point x="1364" y="-10" type="line"/>
      <point x="1178" y="-10" type="line"/>
      <point x="897" y="1070" type="line" smooth="yes"/>
      <point x="888" y="1104"/>
      <point x="875" y="1165"/>
      <point x="870" y="1198" type="qcurve"/>
      <point x="862" y="1198" type="line"/>
      <point x="857" y="1165"/>
      <point x="844" y="1104"/>
      <point x="835" y="1070" type="qcurve" smooth="yes"/>
      <point x="554" y="-10" type="line"/>
    </contour>
  </outline>
</glyph>
<glyph name="asciicircum" format="2">
  <advance width="1140"/>
  <unicode hex="005E"/>
  <outline>
    <contour>
      <point x="10" y="720" type="line"/>
      <point x="485" y="1456" type="line"/>
      <point x="655" y="1456" type="line"/>
      <point x="1130" y="720" type="line"/>
      <point x="930" y="720" type="line"/>
      <point x="570" y="1290" type="line"/>
      <point x="210" y="720" type="line"/>
    </contour>
  </outline>
</glyph>
<glyph name="f" format="2">
  <advance width="605"/>
  <unicode hex="0066"/>
  <anchor x="285" y="0" name="bottom"/>
  <anchor x="285" y="1536" name="top"/>
  <outline>
    <contour>
      <point x="181" y="0" type="line"/>
      <point x="181" y="1200" type="line" smooth="yes"/>
      <point x="181" y="1374"/>
      <point x="371" y="1556"/>
      <point x="535" y="1556" type="qcurve" smooth="yes"/>
      <point x="567" y="1556"/>
      <point x="633" y="1548"/>
      <point x="663" y="1540" type="qcurve"/>
      <point x="653" y="1390" type="line"/>
      <point x="631" y="1394"/>
      <point x="581" y="1400"/>
      <point x="555" y="1400" type="qcurve" smooth="yes"/>
      <point x="465" y="1400"/>
      <point x="367" y="1300"/>
      <point x="367" y="1200" type="qcurve" smooth="yes"/>
      <point x="367" y="992" type="line"/>
      <point x="367" y="970" type="line"/>
      <point x="367" y="0" type="line"/>
    </contour>
    <contour>
      <point x="10" y="910" type="line"/>
      <point x="10" y="1052" type="line"/>
      <point x="251" y="1052" type="line"/>
      <point x="297" y="1052" type="line"/>
      <point x="595" y="1052" type="line"/>
      <point x="595" y="910" type="line"/>
    </contour>
  </outline>
</glyph>
<glyph name="i" format="2">
  <advance width="206"/>
  <unicode hex="0069"/>
  <anchor x="103" y="0" name="bottom"/>
  <anchor x="103" y="1052" name="top"/>
  <anchor x="70" y="0" name="ogonek"/>
  <outline>
    <contour>
      <point x="10" y="0" type="line"/>
      <point x="10" y="1052" type="line"/>
      <point x="196" y="1052" type="line"/>
      <point x="196" y="0" type="line"/>
    </contour>
    <contour>
      <point x="-13" y="1370" type="qcurve" smooth="yes"/>
      <point x="-13" y="1417"/>
      <point x="47" y="1481"/>
      <point x="103" y="1481" type="qcurve" smooth="yes"/>
      <point x="159" y="1481"/>
      <point x="219" y="1417"/>
      <point x="219" y="1370" type="qcurve" smooth="yes"/>
      <point x="219" y="1323"/>
      <point x="159" y="1259"/>
      <point x="103" y="1259" type="qcurve" smooth="yes"/>
      <point x="47" y="1259"/>
      <point x="-13" y="1323"/>
    </contour>
  </outline>
</glyph>
<glyph name="degree" format="2">
  <advance width="526"/>
  <unicode hex="00B0"/>
  <outline>
    <contour>
      <point x="10" y="1217" type="qcurve"/>
      <point x="10" y="1323"/>
      <point x="161" y="1477"/>
      <point x="265" y="1477" type="qcurve" smooth="yes"/>
      <point x="368" y="1477"/>
      <point x="516" y="1322.9701492537"/>
      <point x="516" y="1217" type="qcurve" smooth="yes"/>
      <point x="516" y="1110.2835820896"/>
      <point x="367.9850746269" y="960"/>
      <point x="265" y="960" type="qcurve" smooth="yes"/>
      <point x="161.26865671640002" y="960"/>
      <point x="10" y="1110"/>
    </contour>
    <contour>
      <point x="134" y="1217" type="qcurve"/>
      <point x="134" y="1161.776119403"/>
      <point x="211.26865671640002" y="1088"/>
      <point x="265" y="1088" type="qcurve" smooth="yes"/>
      <point x="318.7313432836" y="1088"/>
      <point x="392" y="1161.776119403"/>
      <point x="392" y="1217" type="qcurve" smooth="yes"/>
      <point x="392" y="1272.9701492537"/>
      <point x="318.7313432836" y="1349"/>
      <point x="265" y="1349" type="qcurve" smooth="yes"/>
      <point x="211.26865671640002" y="1349"/>
      <point x="134" y="1272.9701492537"/>
    </contour>
  </outline>
</glyph>
<glyph name="twosuperior" format="2">
  <advance width="636"/>
  <unicode hex="00B2"/>
  <outline>
    <contour>
      <point x="28.012500000000003" y="697" type="line"/>
      <point x="28.012500000000003" y="805" type="line"/>
      <point x="316.0125" y="1066" type="line" smooth="yes"/>
      <point x="384.0125" y="1127"/>
      <point x="424.0125" y="1216"/>
      <point x="424.0125" y="1249" type="qcurve" smooth="yes"/>
      <point x="424.0125" y="1297"/>
      <point x="372.0125" y="1347"/>
      <point x="313.0125" y="1347" type="qcurve" smooth="yes"/>
      <point x="248.0125" y="1347"/>
      <point x="177.0125" y="1273"/>
      <point x="178.0125" y="1198" type="qcurve"/>
      <point x="10.012500000000003" y="1198" type="line"/>
      <point x="9.012500000000003" y="1329"/>
      <point x="167.0125" y="1487"/>
      <point x="309.0125" y="1487" type="qcurve" smooth="yes"/>
      <point x="443.0125" y="1487"/>
      <point x="595.0125" y="1359"/>
      <point x="595.0125" y="1251" type="qcurve" smooth="yes"/>
      <point x="595.0125" y="1171"/>
      <point x="499.0125" y="1048"/>
      <point x="411.0125" y="971" type="qcurve" smooth="yes"/>
      <point x="266.0125" y="845" type="line"/>
      <point x="626.0125" y="845" type="line"/>
      <point x="626.0125" y="697" type="line"/>
    </contour>
  </outline>
</glyph>
<glyph name="cedilla" format="2">
  <advance width="403"/>
  <unicode hex="00B8"/>
  <outline>
    <contour>
      <point x="109" y="20" type="line"/>
      <point x="238" y="20" type="line"/>
      <point x="210" y="-75" type="line"/>
      <point x="267" y="-85"/>
      <point x="393" y="-161"/>
      <point x="393" y="-248" type="qcurve" smooth="yes"/>
      <point x="393" y="-341"/>
      <point x="219" y="-457"/>
      <point x="17" y="-457" type="qcurve"/>
      <point x="10" y="-350" type="line"/>
      <point x="132" y="-350"/>
      <point x="211" y="-303"/>
      <point x="211" y="-250" type="qcurve" smooth="yes"/>
      <point x="211" y="-201"/>
      <point x="152" y="-164"/>
      <point x="68" y="-157" type="qcurve"/>
    </contour>
  </outline>
</glyph>
<glyph name="oe" format="2">
  <advance width="1744"/>
  <unicode hex="0153"/>
  <outline>
    <contour>
      <point x="200" y="542" type="qcurve" smooth="yes"/>
      <point x="200" y="510" type="line" smooth="yes"/>
      <point x="200" y="347"/>
      <point x="354" y="122"/>
      <point x="506" y="122" type="qcurve" smooth="yes"/>
      <point x="658" y="122"/>
      <point x="812" y="346"/>
      <point x="812" y="510" type="qcurve" smooth="yes"/>
      <point x="812" y="542" type="line" smooth="yes"/>
      <point x="812" y="706"/>
      <point x="658" y="930"/>
      <point x="506" y="930" type="qcurve" smooth="yes"/>
      <point x="354" y="930"/>
      <point x="200" y="705"/>
    </contour>
    <contour>
      <point x="902" y="866" type="qcurve"/>
      <point x="922" y="926"/>
      <point x="1137" y="1082"/>
      <point x="1315" y="1082" type="qcurve" smooth="yes"/>
      <point x="1502" y="1082"/>
      <point x="1734" y="800"/>
      <point x="1734" y="560" type="qcurve" smooth="yes"/>
      <point x="1734" y="484" type="line"/>
      <point x="925" y="484" type="line"/>
      <point x="925" y="632" type="line"/>
      <point x="1546" y="632" type="line"/>
      <point x="1547" y="656" type="line"/>
      <point x="1546" y="770"/>
      <point x="1417" y="930"/>
      <point x="1295" y="930" type="qcurve" smooth="yes"/>
      <point x="1147" y="930"/>
      <point x="1001" y="706"/>
      <point x="1001" y="542" type="qcurve" smooth="yes"/>
      <point x="1001" y="510" type="line" smooth="yes"/>
      <point x="1001" y="346"/>
      <point x="1145" y="122"/>
      <point x="1307" y="122" type="qcurve" smooth="yes"/>
      <point x="1407" y="122"/>
      <point x="1561" y="210"/>
      <point x="1606" y="270" type="qcurve"/>
      <point x="1726" y="175" type="line"/>
      <point x="1676" y="100"/>
      <point x="1467" y="-30"/>
      <point x="1338" y="-30" type="qcurve" smooth="yes"/>
      <point x="1141" y="-30"/>
      <point x="934" y="110"/>
      <point x="904" y="185" type="qcurve"/>
      <point x="874" y="111"/>
      <point x="671" y="-30"/>
      <point x="476" y="-30" type="qcurve" smooth="yes"/>
      <point x="280" y="-30"/>
      <point x="10" y="272"/>
      <point x="10" y="510" type="qcurve" smooth="yes"/>
      <point x="10" y="542" type="line" smooth="yes"/>
      <point x="10" y="780"/>
      <point x="279" y="1081"/>
      <point x="494" y="1081" type="qcurve" smooth="yes"/>
      <point x="680" y="1081"/>
      <point x="882" y="921"/>
    </contour>
  </outline>
</glyph>
<glyph name="commaaccentturned" format="2">
  <advance width="310"/>
  <unicode hex="02BB"/>
  <outline>
    <contour>
      <point x="300" y="1663" type="line"/>
      <point x="271" y="1559"/>
      <point x="235" y="1419"/>
      <point x="212" y="1291" type="qcurve"/>
      <point x="10" y="1289" type="line"/>
      <point x="137" y="1666" type="line"/>
    </contour>
  </outline>
</glyph>
<glyph name="circumflex" format="2">
  <advance width="625"/>
  <unicode hex="02C6"/>
  <outline>
    <contour>
      <point x="367" y="1533" type="line"/>
      <point x="615" y="1220" type="line"/>
      <point x="461" y="1220" type="line"/>
      <point x="311" y="1379" type="line"/>
      <point x="162" y="1220" type="line"/>
      <point x="10" y="1220" type="line"/>
      <point x="255" y="1533" type="line"/>
    </contour>
  </outline>
</glyph>
<glyph name="caron" format="2">
  <advance width="625"/>
  <unicode hex="02C7"/>
  <outline>
    <contour>
      <point x="258" y="1220" type="line"/>
      <point x="10" y="1533" type="line"/>
      <point x="164" y="1533" type="line"/>
      <point x="314" y="1374" type="line"/>
      <point x="463" y="1533" type="line"/>
      <point x="615" y="1533" type="line"/>
      <point x="370" y="1220" type="line"/>
    </contour>
  </outline>
</glyph>
<glyph name="breve" format="2">
  <advance width="692"/>
  <unicode hex="02D8"/>
  <outline>
    <contour>
      <point x="587" y="1518" type="qcurve"/>
      <point x="682" y="1464" type="line"/>
      <point x="647" y="1365"/>
      <point x="472" y="1198"/>
      <point x="346" y="1198" type="qcurve" smooth="yes"/>
      <point x="233" y="1198"/>
      <point x="52" y="1351"/>
      <point x="10" y="1465" type="qcurve"/>
      <point x="114" y="1518" type="line"/>
      <point x="149" y="1461"/>
      <point x="268" y="1362"/>
      <point x="347" y="1362" type="qcurve" smooth="yes"/>
      <point x="431" y="1362"/>
      <point x="551" y="1457"/>
    </contour>
  </outline>
</glyph>
<glyph name="dotaccent" format="2">
  <advance width="252"/>
  <unicode hex="02D9"/>
  <outline>
    <contour>
      <point x="10" y="1345" type="qcurve" smooth="yes"/>
      <point x="10" y="1392"/>
      <point x="70" y="1456"/>
      <point x="126" y="1456" type="qcurve" smooth="yes"/>
      <point x="182" y="1456"/>
      <point x="242" y="1392"/>
      <point x="242" y="1345" type="qcurve" smooth="yes"/>
      <point x="242" y="1298"/>
      <point x="182" y="1234"/>
      <point x="126" y="1234" type="qcurve" smooth="yes"/>
      <point x="70" y="1234"/>
      <point x="10" y="1298"/>
    </contour>
  </outline>
</glyph>
<glyph name="hookabovecomb" format="2">
  <advance width="536"/>
  <unicode hex="0309"/>
  <anchor x="190" y="1052" name="_top"/>
  <anchor x="190" y="1692" name="top"/>
  <outline>
    <contour>
      <point x="132" y="1220" type="line"/>
      <point x="132" y="1259" type="line" smooth="yes"/>
      <point x="132" y="1311"/>
      <point x="191" y="1381"/>
      <point x="267" y="1392" type="qcurve" smooth="yes"/>
      <point x="323" y="1400"/>
      <point x="363" y="1432"/>
      <point x="363" y="1473" type="qcurve" smooth="yes"/>
      <point x="363" y="1512"/>
      <point x="304" y="1548"/>
      <point x="250" y="1548" type="qcurve" smooth="yes"/>
      <point x="186" y="1548"/>
      <point x="74" y="1515"/>
      <point x="64" y="1507" type="qcurve"/>
      <point x="10" y="1632" type="line"/>
      <point x="45" y="1651"/>
      <point x="199" y="1692"/>
      <point x="281" y="1692" type="qcurve" smooth="yes"/>
      <point x="401" y="1692"/>
      <point x="526" y="1578"/>
      <point x="526" y="1482" type="qcurve" smooth="yes"/>
      <point x="526" y="1381"/>
      <point x="398" y="1262"/>
      <point x="255" y="1251" type="qcurve"/>
      <point x="255" y="1220" type="line"/>
    </contour>
  </outline>
</glyph>
<glyph name="numeralsign" format="2">
  <advance width="294"/>
  <unicode hex="0374"/>
  <outline>
    <contour>
      <point x="133" y="1073" type="line"/>
      <point x="10" y="1103" type="line"/>
      <point x="99" y="1556" type="line"/>
      <point x="284" y="1537" type="line"/>
    </contour>
  </outline>
</glyph>
<glyph name="lownumeralsign" format="2">
  <advance width="294"/>
  <unicode hex="0375"/>
  <outline>
    <contour>
      <point x="161" y="285" type="line"/>
      <point x="284" y="255" type="line"/>
      <point x="195" y="-198" type="line"/>
      <point x="10" y="-179" type="line"/>
    </contour>
  </outline>
</glyph>
<glyph name="tonos" format="2">
  <advance width="278"/>
  <unicode hex="0384"/>
  <outline>
    <contour>
      <point x="133" y="1204" type="line"/>
      <point x="10" y="1234" type="line"/>
      <point x="83" y="1606" type="line"/>
      <point x="268" y="1587" type="line"/>
    </contour>
  </outline>
</glyph>
<glyph name="dieresistonos" format="2">
  <advance width="760"/>
  <unicode hex="0385"/>
  <outline>
    <contour>
      <point x="119" y="1207" type="qcurve" smooth="yes"/>
      <point x="66" y="1207"/>
      <point x="10" y="1268"/>
      <point x="10" y="1311" type="qcurve" smooth="yes"/>
      <point x="10" y="1356"/>
      <point x="66" y="1418"/>
      <point x="119" y="1418" type="qcurve" smooth="yes"/>
      <point x="173" y="1418"/>
      <point x="229" y="1356"/>
      <point x="229" y="1311" type="qcurve" smooth="yes"/>
      <point x="229" y="1268"/>
      <point x="173" y="1207"/>
    </contour>
    <contour>
      <point x="412" y="1204" type="line"/>
      <point x="296" y="1212" type="line"/>
      <point x="320" y="1599" type="line"/>
      <point x="506" y="1599" type="line"/>
    </contour>
    <contour>
      <point x="640" y="1205" type="qcurve" smooth="yes"/>
      <point x="586" y="1205"/>
      <point x="531" y="1266"/>
      <point x="531" y="1309" type="qcurve" smooth="yes"/>
      <point x="531" y="1354"/>
      <point x="586" y="1416"/>
      <point x="640" y="1416" type="qcurve" smooth="yes"/>
      <point x="693" y="1416"/>
      <point x="750" y="1354"/>
      <point x="750" y="1309" type="qcurve" smooth="yes"/>
      <point x="750" y="1266"/>
      <point x="693" y="1205"/>
    </contour>
  </outline>
</glyph>
<glyph name="Lambda" format="2">
  <advance width="1260"/>
  <unicode hex="039B"/>
  <outline>
    <contour>
      <point x="10" y="0" type="line"/>
      <point x="544" y="1466" type="line"/>
      <point x="716" y="1466" type="line"/>
      <point x="1250" y="0" type="line"/>
      <point x="1050" y="0" type="line"/>
      <point x="670" y="1100" type="line" smooth="yes"/>
      <point x="659" y="1133"/>
      <point x="640" y="1195"/>
      <point x="633" y="1228" type="qcurve"/>
      <point x="623" y="1228" type="line"/>
      <point x="616" y="1195"/>
      <point x="598" y="1133"/>
      <point x="586" y="1100" type="qcurve" smooth="yes"/>
      <point x="202" y="0" type="line"/>
    </contour>
  </outline>
</glyph>
<glyph name="Xi" format="2">
  <advance width="1024"/>
  <unicode hex="039E"/>
  <outline>
    <contour>
      <point x="10" y="0" type="line"/>
      <point x="10" y="178" type="line"/>
      <point x="1014" y="178" type="line"/>
      <point x="1014" y="0" type="line"/>
    </contour>
    <contour>
      <point x="112" y="662" type="line"/>
      <point x="112" y="840" type="line"/>
      <point x="912" y="840" type="line"/>
      <point x="912" y="662" type="line"/>
    </contour>
    <contour>
      <point x="10" y="1278" type="line"/>
      <point x="10" y="1456" type="line"/>
      <point x="1014" y="1456" type="line"/>
      <point x="1014" y="1278" type="line"/>
    </contour>
  </outline>
</glyph>
<glyph name="Phi" format="2">
  <advance width="1555"/>
  <unicode hex="03A6"/>
  <outline>
    <contour>
      <point x="870" y="1476" type="line"/>
      <point x="870" y="1283" type="line"/>
      <point x="898" y="1283" type="line" smooth="yes"/>
      <point x="1215" y="1283"/>
      <point x="1545" y="991"/>
      <point x="1545" y="738" type="qcurve" smooth="yes"/>
      <point x="1545" y="485"/>
      <point x="1215" y="194"/>
      <point x="898" y="194" type="qcurve" smooth="yes"/>
      <point x="870" y="194" type="line"/>
      <point x="870" y="-20" type="line"/>
      <point x="685" y="-20" type="line"/>
      <point x="685" y="194" type="line"/>
      <point x="657" y="194" type="line" smooth="yes"/>
      <point x="340" y="194"/>
      <point x="10" y="486"/>
      <point x="10" y="739" type="qcurve" smooth="yes"/>
      <point x="10" y="992"/>
      <point x="340" y="1283"/>
      <point x="657" y="1283" type="qcurve" smooth="yes"/>
      <point x="685" y="1283" type="line"/>
      <point x="685" y="1476" type="line"/>
    </contour>
    <contour>
      <point x="898" y="1132" type="qcurve" smooth="yes"/>
      <point x="870" y="1132" type="line"/>
      <point x="870" y="345" type="line"/>
      <point x="898" y="345" type="line" smooth="yes"/>
      <point x="1149" y="345"/>
      <point x="1360" y="545"/>
      <point x="1360" y="736" type="qcurve" smooth="yes"/>
      <point x="1360" y="925"/>
      <point x="1149" y="1132"/>
    </contour>
    <contour>
      <point x="657" y="1132" type="line" smooth="yes"/>
      <point x="406" y="1132"/>
      <point x="195" y="932"/>
      <point x="195" y="741" type="qcurve" smooth="yes"/>
      <point x="195" y="552"/>
      <point x="406" y="345"/>
      <point x="657" y="345" type="qcurve" smooth="yes"/>
      <point x="685" y="345" type="line"/>
      <point x="685" y="1132" type="line"/>
    </contour>
  </outline>
</glyph>
<glyph name="gamma" format="2">
  <advance width="962"/>
  <unicode hex="03B3"/>
  <outline>
    <contour>
      <point x="388" y="-366" type="line"/>
      <point x="388" y="58" type="line"/>
      <point x="10" y="1052" type="line"/>
      <point x="190" y="1052" type="line"/>
      <point x="444" y="350" type="line" smooth="yes"/>
      <point x="458" y="310"/>
      <point x="477" y="240"/>
      <point x="481" y="220" type="qcurve"/>
      <point x="487" y="220" type="line"/>
      <point x="491" y="240"/>
      <point x="510" y="310"/>
      <point x="524" y="350" type="qcurve" smooth="yes"/>
      <point x="776" y="1052" type="line"/>
      <point x="952" y="1052" type="line"/>
      <point x="574" y="58" type="line"/>
      <point x="574" y="-366" type="line"/>
    </contour>
  </outline>
</glyph>
<glyph name="Be" format="2">
  <advance width="1000"/>
  <unicode hex="0411"/>
  <outline>
    <contour>
      <point x="10" y="0" type="line"/>
      <point x="10" y="1456" type="line"/>
      <point x="892" y="1456" type="line"/>
      <point x="892" y="1298" type="line"/>
      <point x="202" y="1298" type="line"/>
      <point x="202" y="866" type="line"/>
      <point x="492" y="866" type="line" smooth="yes"/>
      <point x="732" y="866"/>
      <point x="990" y="630"/>
      <point x="990" y="435" type="qcurve" smooth="yes"/>
      <point x="990" y="239"/>
      <point x="732" y="0"/>
      <point x="492" y="0" type="qcurve" smooth="yes"/>
    </contour>
    <contour>
      <point x="202" y="708" type="line"/>
      <point x="202" y="158" type="line"/>
      <point x="492" y="158" type="line" smooth="yes"/>
      <point x="662" y="158"/>
      <point x="798" y="319"/>
      <point x="798" y="435" type="qcurve" smooth="yes"/>
      <point x="798" y="551"/>
      <point x="662" y="708"/>
      <point x="492" y="708" type="qcurve" smooth="yes"/>
    </contour>
  </outline>
</glyph>
<glyph name="Ghe" format="2">
  <advance width="902"/>
  <unicode hex="0413"/>
  <outline>
    <contour>
      <point x="10" y="0" type="line"/>
      <point x="10" y="1456" type="line"/>
      <point x="892" y="1456" type="line"/>
      <point x="892" y="1298" type="line"/>
      <point x="202" y="1298" type="line"/>
      <point x="202" y="0" type="line"/>
    </contour>
  </outline>
</glyph>
<glyph name="Zhe" format="2">
  <advance width="1850"/>
  <unicode hex="0416"/>
  <outline>
    <contour>
      <point x="826" y="0" type="line"/>
      <point x="826" y="1456" type="line"/>
      <point x="1014" y="1456" type="line"/>
      <point x="1014" y="0" type="line"/>
    </contour>
    <contour>
      <point x="1612" y="0" type="line"/>
      <point x="1074" y="740" type="line"/>
      <point x="1236" y="823" type="line"/>
      <point x="1840" y="0" type="line"/>
    </contour>
    <contour>
      <point x="920" y="830" type="line"/>
      <point x="1122" y="830" type="line"/>
      <point x="1579" y="1456" type="line"/>
      <point x="1796" y="1456" type="line"/>
      <point x="1206" y="673" type="line"/>
      <point x="920" y="673" type="line"/>
    </contour>
    <contour>
      <point x="10" y="0" type="line"/>
      <point x="614" y="823" type="line"/>
      <point x="768" y="740" type="line"/>
      <point x="230" y="0" type="line"/>
    </contour>
    <contour>
      <point x="920" y="830" type="line"/>
      <point x="920" y="673" type="line"/>
      <point x="631" y="673" type="line"/>
      <point x="42" y="1456" type="line"/>
      <point x="261" y="1456" type="line"/>
      <point x="718" y="830" type="line"/>
    </contour>
  </outline>
</glyph>
<glyph name="Ze" format="2">
  <advance width="1096"/>
  <unicode hex="0417"/>
  <outline>
    <contour>
      <point x="565" y="134" type="qcurve" smooth="yes"/>
      <point x="738" y="134"/>
      <point x="896" y="289"/>
      <point x="896" y="420" type="qcurve" smooth="yes"/>
      <point x="896" y="540"/>
      <point x="756" y="680"/>
      <point x="606" y="680" type="qcurve" smooth="yes"/>
      <point x="374" y="680" type="line"/>
      <point x="374" y="836" type="line"/>
      <point x="576" y="836" type="line" smooth="yes"/>
      <point x="726" y="836"/>
      <point x="858" y="962.6495726496"/>
      <point x="858" y="1075" type="qcurve" smooth="yes"/>
      <point x="858" y="1193.5992063492"/>
      <point x="712" y="1322"/>
      <point x="553" y="1322" type="qcurve" smooth="yes"/>
      <point x="394" y="1322"/>
      <point x="221" y="1177"/>
      <point x="221" y="1022" type="qcurve" smooth="yes"/>
      <point x="221" y="1010" type="line"/>
      <point x="29" y="1010" type="line"/>
      <point x="29" y="1020" type="line" smooth="yes"/>
      <point x="29" y="1221"/>
      <point x="291" y="1486"/>
      <point x="551" y="1486" type="qcurve" smooth="yes"/>
      <point x="781" y="1486"/>
      <point x="1048" y="1287.4158653846"/>
      <point x="1048" y="1075" type="qcurve" smooth="yes"/>
      <point x="1048" y="953.0132450331"/>
      <point x="926.1684590495" y="800.0598965509"/>
      <point x="836" y="768" type="qcurve"/>
      <point x="836" y="764" type="line"/>
      <point x="946" y="732"/>
      <point x="1086" y="560"/>
      <point x="1086" y="420" type="qcurve" smooth="yes"/>
      <point x="1086" y="206"/>
      <point x="801" y="-30"/>
      <point x="565" y="-30" type="qcurve" smooth="yes"/>
      <point x="315" y="-30"/>
      <point x="10" y="204"/>
      <point x="10" y="456" type="qcurve" smooth="yes"/>
      <point x="10" y="466" type="line"/>
      <point x="202" y="466" type="line"/>
      <point x="202" y="456" type="line" smooth="yes"/>
      <point x="202" y="287"/>
      <point x="382" y="134"/>
    </contour>
  </outline>
</glyph>
<glyph name="ef" format="2">
  <advance width="1298"/>
  <unicode hex="0444"/>
  <outline>
    <contour>
      <point x="200" y="510" type="line" smooth="yes"/>
      <point x="200" y="342"/>
      <point x="359" y="132"/>
      <point x="556" y="122" type="qcurve"/>
      <point x="556" y="930" type="line"/>
      <point x="359" y="920"/>
      <point x="200" y="710"/>
      <point x="200" y="542" type="qcurve" smooth="yes"/>
    </contour>
    <contour>
      <point x="1098" y="542" type="line" smooth="yes"/>
      <point x="1098" y="710"/>
      <point x="939" y="920"/>
      <point x="742" y="930" type="qcurve"/>
      <point x="742" y="122" type="line"/>
      <point x="939" y="132"/>
      <point x="1098" y="342"/>
      <point x="1098" y="510" type="qcurve" smooth="yes"/>
    </contour>
    <contour>
      <point x="556" y="-30" type="line"/>
      <point x="287" y="-20"/>
      <point x="10" y="267"/>
      <point x="10" y="510" type="qcurve" smooth="yes"/>
      <point x="10" y="542" type="line" smooth="yes"/>
      <point x="10" y="785"/>
      <point x="287" y="1072"/>
      <point x="556" y="1082" type="qcurve"/>
      <point x="556" y="1536" type="line"/>
      <point x="742" y="1536" type="line"/>
      <point x="742" y="1082" type="line"/>
      <point x="1011" y="1072"/>
      <point x="1288" y="785"/>
      <point x="1288" y="542" type="qcurve" smooth="yes"/>
      <point x="1288" y="510" type="line" smooth="yes"/>
      <point x="1288" y="267"/>
      <point x="1011" y="-20"/>
      <point x="742" y="-30" type="qcurve"/>
      <point x="742" y="-416" type="line"/>
      <point x="556" y="-416" type="line"/>
    </contour>
  </outline>
</glyph>
<glyph name="che" format="2">
  <advance width="842"/>
  <unicode hex="0447"/>
  <guideline x="855" y="515" angle="90" identifier="GGEFes61Q6"/>
  <outline>
    <contour>
      <point x="196" y="773" type="line" smooth="yes"/>
      <point x="196" y="642"/>
      <point x="295" y="542"/>
      <point x="418" y="542" type="qcurve" smooth="yes"/>
      <point x="507" y="542"/>
      <point x="651" y="568"/>
      <point x="739" y="590" type="qcurve"/>
      <point x="739" y="444" type="line"/>
      <point x="654" y="425"/>
      <point x="506" y="396"/>
      <point x="382" y="396" type="qcurve" smooth="yes"/>
      <point x="186" y="396"/>
      <point x="10" y="583"/>
      <point x="10" y="773" type="qcurve" smooth="yes"/>
      <point x="10" y="1052" type="line"/>
      <point x="196" y="1052" type="line"/>
    </contour>
    <contour>
      <point x="832" y="1052" type="line"/>
      <point x="832" y="0" type="line"/>
      <point x="646" y="0" type="line"/>
      <point x="646" y="1052" type="line"/>
    </contour>
  </outline>
</glyph>
<glyph name="yi" format="2">
  <advance width="206"/>
  <unicode hex="0457"/>
  <outline>
    <contour>
      <point x="-127" y="1370" type="qcurve" smooth="yes"/>
      <point x="-127" y="1417"/>
      <point x="-73" y="1481"/>
      <point x="-22" y="1481" type="qcurve" smooth="yes"/>
      <point x="30" y="1481"/>
      <point x="84" y="1417"/>
      <point x="84" y="1370" type="qcurve" smooth="yes"/>
      <point x="84" y="1323"/>
      <point x="30" y="1259"/>
      <point x="-22" y="1259" type="qcurve" smooth="yes"/>
      <point x="-73" y="1259"/>
      <point x="-127" y="1323"/>
    </contour>
    <contour>
      <point x="10" y="1052" type="line"/>
      <point x="196" y="1052" type="line"/>
      <point x="196" y="0" type="line"/>
      <point x="10" y="0" type="line"/>
    </contour>
    <contour>
      <point x="122" y="1370" type="qcurve" smooth="yes"/>
      <point x="122" y="1417"/>
      <point x="176" y="1481"/>
      <point x="227" y="1481" type="qcurve" smooth="yes"/>
      <point x="279" y="1481"/>
      <point x="333" y="1417"/>
      <point x="333" y="1370" type="qcurve" smooth="yes"/>
      <point x="333" y="1323"/>
      <point x="279" y="1259"/>
      <point x="227" y="1259" type="qcurve" smooth="yes"/>
      <point x="176" y="1259"/>
      <point x="122" y="1323"/>
    </contour>
  </outline>
</glyph>
<glyph name="dzhe" format="2">
  <advance width="852"/>
  <unicode hex="045F"/>
  <outline>
    <contour>
      <point x="10" y="0" type="line"/>
      <point x="10" y="1052" type="line"/>
      <point x="196" y="1052" type="line"/>
      <point x="196" y="145" type="line"/>
      <point x="656" y="145" type="line"/>
      <point x="656" y="1052" type="line"/>
      <point x="842" y="1052" type="line"/>
      <point x="842" y="0" type="line"/>
      <point x="510" y="0" type="line"/>
      <point x="510" y="-270" type="line"/>
      <point x="342" y="-270" type="line"/>
      <point x="342" y="0" type="line"/>
    </contour>
  </outline>
</glyph>
<glyph name="Kadescender" format="2">
  <advance width="1192"/>
  <unicode hex="049A"/>
  <outline>
    <contour>
      <point x="106" y="830" type="line"/>
      <point x="320" y="830" type="line"/>
      <point x="865" y="1456" type="line"/>
      <point x="1082" y="1456" type="line"/>
      <point x="398" y="672" type="line"/>
      <point x="106" y="672" type="line"/>
    </contour>
    <contour>
      <point x="890" y="0" type="line"/>
      <point x="262" y="740" type="line"/>
      <point x="422" y="823" type="line"/>
      <point x="1126" y="0" type="line"/>
    </contour>
    <contour>
      <point x="10" y="0" type="line"/>
      <point x="10" y="1456" type="line"/>
      <point x="202" y="1456" type="line"/>
      <point x="202" y="0" type="line"/>
    </contour>
    <contour>
      <point x="890" y="0" type="line"/>
      <point x="890" y="158" type="line"/>
      <point x="1182" y="158" type="line"/>
      <point x="1182" y="-290" type="line"/>
      <point x="1010" y="-290" type="line"/>
      <point x="1010" y="0" type="line"/>
    </contour>
  </outline>
</glyph>
<glyph name="Tedescender-cy" format="2">
  <advance width="1148"/>
  <unicode hex="04AC"/>
  <outline>
    <contour>
      <point x="678" y="-290" type="line"/>
      <point x="678" y="0" type="line"/>
      <point x="478" y="0" type="line"/>
      <point x="478" y="1298" type="line"/>
      <point x="10" y="1298" type="line"/>
      <point x="10" y="1456" type="line"/>
      <point x="1138" y="1456" type="line"/>
      <point x="1138" y="1298" type="line"/>
      <point x="670" y="1298" type="line"/>
      <point x="670" y="158" type="line"/>
      <point x="850" y="158" type="line"/>
      <point x="850" y="-290" type="line"/>
    </contour>
  </outline>
</glyph>
<glyph name="Shha" format="2">
  <advance width="1098"/>
  <unicode hex="04BA"/>
  <outline>
    <contour>
      <point x="896" y="424" type="line" smooth="yes"/>
      <point x="896" y="602"/>
      <point x="733" y="722"/>
      <point x="535" y="722" type="qcurve" smooth="yes"/>
      <point x="416.276744186" y="722"/>
      <point x="205.7772754599" y="701.9532278466"/>
      <point x="106" y="681" type="qcurve"/>
      <point x="106" y="839" type="line"/>
      <point x="239.70678874880002" y="860.9518608394"/>
      <point x="425.2808988764" y="880"/>
      <point x="550" y="880" type="qcurve" smooth="yes"/>
      <point x="861" y="880"/>
      <point x="1088" y="649"/>
      <point x="1088" y="421" type="qcurve" smooth="yes"/>
      <point x="1088" y="0" type="line"/>
      <point x="896" y="0" type="line"/>
    </contour>
    <contour>
      <point x="10" y="0" type="line"/>
      <point x="10" y="1456" type="line"/>
      <point x="202" y="1456" type="line"/>
      <point x="202" y="0" type="line"/>
    </contour>
  </outline>
</glyph>
<glyph name="obarcyr" format="2">
  <advance width="1012"/>
  <unicode hex="04E9"/>
  <guideline x="182" y="511" angle="90" identifier="HuPjA4mSCL"/>
  <guideline x="982" y="610" angle="90" identifier="F596JbvFPy"/>
  <outline>
    <contour>
      <point x="105" y="610" type="line"/>
      <point x="907" y="610" type="line"/>
      <point x="907" y="465" type="line"/>
      <point x="105" y="465" type="line"/>
    </contour>
    <contour>
      <point x="10" y="510" type="qcurve" smooth="yes"/>
      <point x="10" y="542" type="line" smooth="yes"/>
      <point x="10" y="780"/>
      <point x="280" y="1082"/>
      <point x="506" y="1082" type="qcurve" smooth="yes"/>
      <point x="732" y="1082"/>
      <point x="1002" y="780"/>
      <point x="1002" y="542" type="qcurve" smooth="yes"/>
      <point x="1002" y="510" type="line" smooth="yes"/>
      <point x="1002" y="272"/>
      <point x="732" y="-30"/>
      <point x="506" y="-30" type="qcurve" smooth="yes"/>
      <point x="280" y="-30"/>
      <point x="10" y="272"/>
    </contour>
    <contour>
      <point x="200" y="552" type="qcurve" smooth="yes"/>
      <point x="200" y="500" type="line" smooth="yes"/>
      <point x="200" y="341"/>
      <point x="354" y="122"/>
      <point x="506" y="122" type="qcurve" smooth="yes"/>
      <point x="658" y="122"/>
      <point x="812" y="341"/>
      <point x="812" y="500" type="qcurve" smooth="yes"/>
      <point x="812" y="552" type="line" smooth="yes"/>
      <point x="812" y="711"/>
      <point x="658" y="930"/>
      <point x="506" y="930" type="qcurve" smooth="yes"/>
      <point x="354" y="930"/>
      <point x="200" y="711"/>
    </contour>
  </outline>
</glyph>
<glyph name="endash" format="2">
  <advance width="1044"/>
  <unicode hex="2013"/>
  <outline>
    <contour>
      <point x="10" y="532" type="line"/>
      <point x="10" y="700" type="line"/>
      <point x="1034" y="700" type="line"/>
      <point x="1034" y="532" type="line"/>
    </contour>
  </outline>
</glyph>
<glyph name="daggerdbl" format="2">
  <advance width="869"/>
  <unicode hex="2021"/>
  <outline>
    <contour>
      <point x="10" y="38" type="line"/>
      <point x="10" y="204" type="line"/>
      <point x="361" y="204" type="line"/>
      <point x="341" y="534" type="line"/>
      <point x="356" y="855" type="line"/>
      <point x="10" y="855" type="line"/>
      <point x="10" y="1022" type="line"/>
      <point x="342" y="1022" type="line"/>
      <point x="339" y="1508" type="line"/>
      <point x="530" y="1508" type="line"/>
      <point x="527" y="1022" type="line"/>
      <point x="859" y="1022" type="line"/>
      <point x="859" y="855" type="line"/>
      <point x="513" y="855" type="line"/>
      <point x="528" y="534" type="line"/>
      <point x="508" y="204" type="line"/>
      <point x="859" y="204" type="line"/>
      <point x="859" y="38" type="line"/>
      <point x="522" y="38" type="line"/>
      <point x="525" y="-452" type="line"/>
      <point x="344" y="-452" type="line"/>
      <point x="347" y="38" type="line"/>
    </contour>
  </outline>
</glyph>
<glyph name="Euro" format="2">
  <advance width="1029"/>
  <unicode hex="20AC"/>
  <outline>
    <contour>
      <point x="792" y="987" type="line"/>
      <point x="795" y="827" type="line"/>
      <point x="10" y="827" type="line"/>
      <point x="10" y="987" type="line"/>
    </contour>
    <contour>
      <point x="795" y="661" type="line"/>
      <point x="795" y="502" type="line"/>
      <point x="10" y="502" type="line"/>
      <point x="10" y="661" type="line"/>
    </contour>
    <contour>
      <point x="191" y="544" type="qcurve" smooth="yes"/>
      <point x="191" y="903" type="line" smooth="yes"/>
      <point x="191" y="1183"/>
      <point x="425" y="1484"/>
      <point x="642" y="1484" type="qcurve" smooth="yes"/>
      <point x="754" y="1484"/>
      <point x="942" y="1408"/>
      <point x="1006" y="1337" type="qcurve"/>
      <point x="889" y="1206" type="line"/>
      <point x="835" y="1265"/>
      <point x="714" y="1328"/>
      <point x="656" y="1328" type="qcurve" smooth="yes"/>
      <point x="525" y="1328"/>
      <point x="385" y="1109"/>
      <point x="385" y="906" type="qcurve" smooth="yes"/>
      <point x="385" y="541" type="line" smooth="yes"/>
      <point x="385" y="342"/>
      <point x="536" y="128"/>
      <point x="677" y="128" type="qcurve" smooth="yes"/>
      <point x="732" y="128"/>
      <point x="856" y="187"/>
      <point x="916" y="242" type="qcurve"/>
      <point x="1019" y="126" type="line"/>
      <point x="958" y="51"/>
      <point x="764" y="-30"/>
      <point x="644" y="-30" type="qcurve" smooth="yes"/>
      <point x="426" y="-30"/>
      <point x="191" y="267"/>
    </contour>
  </outline>
</glyph>
<glyph name="uni20AD" format="2">
  <advance width="1090"/>
  <unicode hex="20AD"/>
  <outline>
    <contour>
      <point x="149" y="0" type="line"/>
      <point x="149" y="1456" type="line"/>
      <point x="336" y="1456" type="line"/>
      <point x="336" y="769" type="line"/>
      <point x="854" y="1456" type="line"/>
      <point x="1056" y="1456" type="line"/>
      <point x="336" y="500" type="line"/>
      <point x="336" y="0" type="line"/>
    </contour>
    <contour>
      <point x="864" y="0" type="line"/>
      <point x="460" y="756" type="line"/>
      <point x="576" y="901" type="line"/>
      <point x="1080" y="0" type="line"/>
    </contour>
    <contour>
      <point x="286" y="661" type="line"/>
      <point x="10" y="661" type="line"/>
      <point x="10" y="809" type="line"/>
      <point x="286" y="809" type="line"/>
    </contour>
    <contour>
      <point x="1040" y="809" type="line"/>
      <point x="1040" y="661" type="line"/>
      <point x="574" y="661" type="line"/>
      <point x="574" y="809" type="line"/>
    </contour>
  </outline>
</glyph>
<glyph name="hryvnia" format="2">
  <advance width="1063"/>
  <unicode hex="20B4"/>
  <outline>
    <contour>
      <point x="98" y="334" type="qcurve" smooth="yes"/>
      <point x="98" y="458"/>
      <point x="242" y="655"/>
      <point x="402" y="752" type="qcurve" smooth="yes"/>
      <point x="580" y="859" type="line" smooth="yes"/>
      <point x="694" y="928"/>
      <point x="796" y="1054"/>
      <point x="796" y="1126" type="qcurve" smooth="yes"/>
      <point x="796" y="1220"/>
      <point x="672" y="1328"/>
      <point x="556" y="1328" type="qcurve" smooth="yes"/>
      <point x="461" y="1328"/>
      <point x="329" y="1246"/>
      <point x="302" y="1175" type="qcurve" smooth="yes"/>
      <point x="292" y="1146" type="line"/>
      <point x="123" y="1208" type="line"/>
      <point x="133" y="1236" type="line" smooth="yes"/>
      <point x="177" y="1356"/>
      <point x="397" y="1486"/>
      <point x="559" y="1486" type="qcurve" smooth="yes"/>
      <point x="757" y="1486"/>
      <point x="969" y="1305"/>
      <point x="969" y="1136" type="qcurve" smooth="yes"/>
      <point x="969" y="1043"/>
      <point x="822" y="871"/>
      <point x="657" y="772" type="qcurve" smooth="yes"/>
      <point x="461" y="654" type="line" smooth="yes"/>
      <point x="361" y="594"/>
      <point x="272" y="449"/>
      <point x="272" y="348" type="qcurve" smooth="yes"/>
      <point x="272" y="245"/>
      <point x="412" y="128"/>
      <point x="543" y="128" type="qcurve" smooth="yes"/>
      <point x="657" y="128"/>
      <point x="802" y="204"/>
      <point x="823" y="269" type="qcurve" smooth="yes"/>
      <point x="836" y="309" type="line"/>
      <point x="1007" y="253" type="line"/>
      <point x="994" y="214" type="line" smooth="yes"/>
      <point x="955" y="96"/>
      <point x="721" y="-30"/>
      <point x="543" y="-30" type="qcurve" smooth="yes"/>
      <point x="329" y="-30"/>
      <point x="98" y="159"/>
    </contour>
    <contour>
      <point x="10" y="831" type="line"/>
      <point x="10" y="976" type="line"/>
      <point x="1053" y="976" type="line"/>
      <point x="1053" y="831" type="line"/>
    </contour>
    <contour>
      <point x="10" y="511" type="line"/>
      <point x="10" y="656" type="line"/>
      <point x="1053" y="656" type="line"/>
      <point x="1053" y="511" type="line"/>
    </contour>
  </outline>
</glyph>
<glyph name="liraTurkish" format="2">
  <advance width="1029"/>
  <unicode hex="20BA"/>
  <outline>
    <contour>
      <point x="10" y="334" type="line"/>
      <point x="10" y="502" type="line"/>
      <point x="860" y="876" type="line"/>
      <point x="854" y="709" type="line"/>
    </contour>
    <contour>
      <point x="184" y="0" type="line"/>
      <point x="184" y="1456" type="line"/>
      <point x="366" y="1456" type="line"/>
      <point x="366" y="153" type="line"/>
      <point x="443" y="153" type="line" smooth="yes"/>
      <point x="651" y="153"/>
      <point x="843" y="363"/>
      <point x="839" y="521" type="qcurve" smooth="yes"/>
      <point x="839" y="558" type="line"/>
      <point x="1019" y="558" type="line"/>
      <point x="1019" y="523" type="line" smooth="yes"/>
      <point x="1019" y="298"/>
      <point x="731" y="0"/>
      <point x="406" y="0" type="qcurve" smooth="yes"/>
    </contour>
    <contour>
      <point x="10" y="694" type="line"/>
      <point x="10" y="862" type="line"/>
      <point x="860" y="1236" type="line"/>
      <point x="854" y="1069" type="line"/>
    </contour>
  </outline>
</glyph>
<glyph name=".notdef" format="2">
  <advance width="728"/>
  <outline>
    <contour>
      <point x="718" y="1456" type="line"/>
      <point x="718" y="0" type="line"/>
      <point x="10" y="0" type="line"/>
      <point x="10" y="1456" type="line"/>
    </contour>
    <contour>
      <point x="64" y="1402" type="line"/>
      <point x="64" y="54" type="line"/>
      <point x="664" y="54" type="line"/>
      <point x="664" y="1402" type="line"/>
    </contour>
    <contour>
      <point x="36" y="30" type="line"/>
      <point x="629" y="1426" type="line"/>
      <point x="687" y="1426" type="line"/>
      <point x="94" y="30" type="line"/>
    </contour>
    <contour>
      <point x="36" y="1426" type="line"/>
      <point x="94" y="1426" type="line"/>
      <point x="687" y="30" type="line"/>
      <point x="629" y="30" type="line"/>
    </contour>
  </outline>
</glyph>
<glyph name="acutecombstack.case" format="2">
  <advance width="439"/>
  <anchor x="220" y="1536" name="_top"/>
  <anchor x="220" y="1941" name="top"/>
  <outline>
    <contour>
      <point x="10" y="1715" type="line"/>
      <point x="313" y="1941" type="line"/>
      <point x="429" y="1777" type="line"/>
      <point x="92" y="1605" type="line"/>
    </contour>
  </outline>
</glyph>
<glyph name="brevetildecomb.case" format="2">
  <advance width="749"/>
  <anchor x="373" y="1456" name="_top"/>
  <outline>
    <contour>
      <point x="636" y="1900" type="qcurve"/>
      <point x="739" y="1834" type="line"/>
      <point x="702" y="1747"/>
      <point x="511" y="1600"/>
      <point x="374" y="1600" type="qcurve" smooth="yes"/>
      <point x="252" y="1600"/>
      <point x="56" y="1735"/>
      <point x="10" y="1835" type="qcurve"/>
      <point x="120" y="1900" type="line"/>
      <point x="159" y="1846"/>
      <point x="289" y="1759"/>
      <point x="374" y="1759" type="qcurve" smooth="yes"/>
      <point x="466" y="1759"/>
      <point x="597" y="1842"/>
    </contour>
    <contour>
      <point x="22" y="2119" type="line"/>
      <point x="62" y="2191"/>
      <point x="186" y="2265"/>
      <point x="253" y="2265" type="qcurve" smooth="yes"/>
      <point x="288" y="2265"/>
      <point x="361" y="2243"/>
      <point x="397" y="2217" type="qcurve" smooth="yes"/>
      <point x="427" y="2195"/>
      <point x="493" y="2160"/>
      <point x="525" y="2160" type="qcurve" smooth="yes"/>
      <point x="565" y="2160"/>
      <point x="612" y="2200"/>
      <point x="633" y="2239" type="qcurve"/>
      <point x="727" y="2148" type="line"/>
      <point x="695" y="2074"/>
      <point x="581" y="2000"/>
      <point x="516" y="2000" type="qcurve" smooth="yes"/>
      <point x="467" y="2000"/>
      <point x="385" y="2035"/>
      <point x="355" y="2055" type="qcurve" smooth="yes"/>
      <point x="324" y="2076"/>
      <point x="260" y="2113"/>
      <point x="236" y="2113" type="qcurve" smooth="yes"/>
      <point x="200" y="2113"/>
      <point x="139" y="2058"/>
      <point x="120" y="2028" type="qcurve"/>
    </contour>
  </outline>
</glyph>
<glyph name="brevetildecomb" format="2">
  <advance width="775"/>
  <anchor x="396" y="1052" name="_top"/>
  <outline>
    <contour>
      <point x="637" y="1540" type="qcurve"/>
      <point x="732" y="1486" type="line"/>
      <point x="697" y="1387"/>
      <point x="522" y="1220"/>
      <point x="396" y="1220" type="qcurve" smooth="yes"/>
      <point x="283" y="1220"/>
      <point x="102" y="1373"/>
      <point x="60" y="1487" type="qcurve"/>
      <point x="164" y="1540" type="line"/>
      <point x="199" y="1483"/>
      <point x="318" y="1384"/>
      <point x="397" y="1384" type="qcurve" smooth="yes"/>
      <point x="481" y="1384"/>
      <point x="601" y="1479"/>
    </contour>
    <contour>
      <point x="10" y="1746" type="line"/>
      <point x="43" y="1809"/>
      <point x="181" y="1907"/>
      <point x="248" y="1907" type="qcurve" smooth="yes"/>
      <point x="289" y="1907"/>
      <point x="364" y="1882"/>
      <point x="401" y="1858" type="qcurve" smooth="yes"/>
      <point x="435" y="1836"/>
      <point x="513" y="1792"/>
      <point x="551" y="1792" type="qcurve" smooth="yes"/>
      <point x="591" y="1792"/>
      <point x="661" y="1845"/>
      <point x="684" y="1881" type="qcurve"/>
      <point x="765" y="1783" type="line"/>
      <point x="727" y="1712"/>
      <point x="594" y="1640"/>
      <point x="537" y="1640" type="qcurve" smooth="yes"/>
      <point x="488" y="1640"/>
      <point x="394" y="1683"/>
      <point x="363" y="1700" type="qcurve" smooth="yes"/>
      <point x="329" y="1719"/>
      <point x="261" y="1753"/>
      <point x="232" y="1753" type="qcurve" smooth="yes"/>
      <point x="185" y="1753"/>
      <point x="104" y="1681"/>
      <point x="86" y="1654" type="qcurve"/>
    </contour>
  </outline>
</glyph>
<glyph name="caroncomb.case" format="2">
  <advance width="686"/>
  <anchor x="350" y="1456" name="_top"/>
  <anchor x="350" y="1940" name="top"/>
  <outline>
    <contour>
      <point x="275" y="1600" type="line"/>
      <point x="10" y="1940" type="line"/>
      <point x="177" y="1940" type="line"/>
      <point x="343" y="1758" type="line"/>
      <point x="503" y="1940" type="line"/>
      <point x="676" y="1940" type="line"/>
      <point x="419" y="1600" type="line"/>
    </contour>
  </outline>
</glyph>
<glyph name="cedillacomb.case" format="2">
  <advance width="453"/>
  <anchor x="211" y="0" name="_bottom"/>
  <anchor x="211" y="-517" name="bottom"/>
  <outline>
    <contour>
      <point x="129" y="20" type="line"/>
      <point x="268" y="20" type="line"/>
      <point x="240" y="-105" type="line"/>
      <point x="319" y="-119"/>
      <point x="443" y="-211"/>
      <point x="443" y="-288" type="qcurve" smooth="yes"/>
      <point x="443" y="-391"/>
      <point x="219" y="-517"/>
      <point x="17" y="-517" type="qcurve"/>
      <point x="10" y="-381" type="line"/>
      <point x="118" y="-382"/>
      <point x="241" y="-343"/>
      <point x="241" y="-290" type="qcurve" smooth="yes"/>
      <point x="241" y="-241"/>
      <point x="172" y="-204"/>
      <point x="88" y="-197" type="qcurve"/>
    </contour>
  </outline>
</glyph>
<glyph name="circumflextildecomb.case" format="2">
  <advance width="725"/>
  <anchor x="363" y="1456" name="_top"/>
  <outline>
    <contour>
      <point x="430" y="1892" type="line"/>
      <point x="695" y="1602" type="line"/>
      <point x="531" y="1602" type="line"/>
      <point x="362" y="1739" type="line"/>
      <point x="197" y="1602" type="line"/>
      <point x="29" y="1602" type="line"/>
      <point x="286" y="1892" type="line"/>
    </contour>
    <contour>
      <point x="10" y="2111" type="line"/>
      <point x="50" y="2183"/>
      <point x="174" y="2257"/>
      <point x="241" y="2257" type="qcurve" smooth="yes"/>
      <point x="276" y="2257"/>
      <point x="349" y="2235"/>
      <point x="385" y="2209" type="qcurve" smooth="yes"/>
      <point x="415" y="2187"/>
      <point x="481" y="2152"/>
      <point x="513" y="2152" type="qcurve" smooth="yes"/>
      <point x="553" y="2152"/>
      <point x="600" y="2192"/>
      <point x="621" y="2231" type="qcurve"/>
      <point x="715" y="2140" type="line"/>
      <point x="683" y="2066"/>
      <point x="569" y="1992"/>
      <point x="504" y="1992" type="qcurve" smooth="yes"/>
      <point x="455" y="1992"/>
      <point x="373" y="2027"/>
      <point x="343" y="2047" type="qcurve" smooth="yes"/>
      <point x="312" y="2068"/>
      <point x="248" y="2105"/>
      <point x="224" y="2105" type="qcurve" smooth="yes"/>
      <point x="188" y="2105"/>
      <point x="127" y="2050"/>
      <point x="108" y="2020" type="qcurve"/>
    </contour>
  </outline>
</glyph>
<glyph name="circumflextildecomb" format="2">
  <advance width="775"/>
  <anchor x="387" y="1052" name="_top"/>
  <outline>
    <contour>
      <point x="442" y="1533" type="line"/>
      <point x="690" y="1220" type="line"/>
      <point x="536" y="1220" type="line"/>
      <point x="386" y="1379" type="line"/>
      <point x="237" y="1220" type="line"/>
      <point x="85" y="1220" type="line"/>
      <point x="330" y="1533" type="line"/>
    </contour>
    <contour>
      <point x="10" y="1739" type="line"/>
      <point x="43" y="1802"/>
      <point x="181" y="1900"/>
      <point x="248" y="1900" type="qcurve" smooth="yes"/>
      <point x="289" y="1900"/>
      <point x="364" y="1875"/>
      <point x="401" y="1851" type="qcurve" smooth="yes"/>
      <point x="435" y="1829"/>
      <point x="513" y="1785"/>
      <point x="551" y="1785" type="qcurve" smooth="yes"/>
      <point x="591" y="1785"/>
      <point x="661" y="1838"/>
      <point x="684" y="1874" type="qcurve"/>
      <point x="765" y="1776" type="line"/>
      <point x="727" y="1705"/>
      <point x="594" y="1633"/>
      <point x="537" y="1633" type="qcurve" smooth="yes"/>
      <point x="488" y="1633"/>
      <point x="394" y="1676"/>
      <point x="363" y="1693" type="qcurve" smooth="yes"/>
      <point x="329" y="1712"/>
      <point x="261" y="1746"/>
      <point x="232" y="1746" type="qcurve" smooth="yes"/>
      <point x="185" y="1746"/>
      <point x="104" y="1674"/>
      <point x="86" y="1647" type="qcurve"/>
    </contour>
  </outline>
</glyph>
<glyph name="coloncurrency.rvrn" format="2">
  <advance width="1068"/>
  <guideline x="0" y="1570" angle="0" identifier="0DwZ2nfhdf"/>
  <outline>
    <contour>
      <point x="10" y="612" type="qcurve" smooth="yes"/>
      <point x="10" y="844" type="line" smooth="yes"/>
      <point x="10" y="1154"/>
      <point x="312" y="1486"/>
      <point x="546" y="1486" type="qcurve" smooth="yes"/>
      <point x="781" y="1486"/>
      <point x="1048" y="1233"/>
      <point x="1048" y="1040" type="qcurve" smooth="yes"/>
      <point x="1048" y="990" type="line"/>
      <point x="866" y="990" type="line"/>
      <point x="866" y="1041" type="line" smooth="yes"/>
      <point x="866" y="1161"/>
      <point x="709" y="1332"/>
      <point x="546" y="1332" type="qcurve" smooth="yes"/>
      <point x="384" y="1332"/>
      <point x="196" y="1085"/>
      <point x="196" y="844" type="qcurve" smooth="yes"/>
      <point x="196" y="592" type="line" smooth="yes"/>
      <point x="196" y="369"/>
      <point x="394" y="114"/>
      <point x="556" y="114" type="qcurve" smooth="yes"/>
      <point x="719" y="114"/>
      <point x="871" y="291"/>
      <point x="871" y="412" type="qcurve" smooth="yes"/>
      <point x="871" y="466" type="line"/>
      <point x="1058" y="466" type="line"/>
      <point x="1058" y="426" type="line" smooth="yes"/>
      <point x="1058" y="241"/>
      <point x="791" y="-30"/>
      <point x="556" y="-30" type="qcurve" smooth="yes"/>
      <point x="317" y="-30"/>
      <point x="10" y="308"/>
    </contour>
    <contour>
      <point x="400" y="134" type="line"/>
      <point x="387" y="45" type="line"/>
      <point x="393" y="18" type="line"/>
      <point x="373" y="-125" type="line"/>
      <point x="214" y="-125" type="line"/>
      <point x="246" y="101" type="line"/>
      <point x="260" y="127" type="line"/>
      <point x="262" y="134" type="line"/>
    </contour>
    <contour>
      <point x="615" y="1570" type="line"/>
      <point x="594" y="1426" type="line"/>
      <point x="581" y="1405" type="line"/>
      <point x="577" y="1380" type="line"/>
      <point x="439" y="1380" type="line"/>
      <point x="443" y="1407" type="line"/>
      <point x="436" y="1430" type="line"/>
      <point x="457" y="1570" type="line"/>
    </contour>
    <contour>
      <point x="663" y="78" type="line"/>
      <point x="659" y="40" type="line"/>
      <point x="665" y="15" type="line"/>
      <point x="645" y="-125" type="line"/>
      <point x="486" y="-125" type="line"/>
      <point x="505" y="12" type="line"/>
      <point x="519" y="38" type="line"/>
      <point x="526" y="78" type="line"/>
    </contour>
    <contour>
      <point x="887" y="1570" type="line"/>
      <point x="855" y="1374" type="line"/>
      <point x="842" y="1351" type="line"/>
      <point x="841" y="1341" type="line"/>
      <point x="704" y="1341" type="line"/>
      <point x="715" y="1411" type="line"/>
      <point x="708" y="1431" type="line"/>
      <point x="729" y="1570" type="line"/>
    </contour>
  </outline>
</glyph>
<glyph name="diagonalbarO.rvrn" format="2">
  <advance width="640"/>
  <outline>
    <contour>
      <point x="10" y="-109" type="line"/>
      <point x="64" y="86" type="line"/>
      <point x="82" y="81" type="line"/>
      <point x="101" y="136" type="line"/>
      <point x="209" y="68" type="line"/>
      <point x="203" y="54" type="line"/>
      <point x="223" y="50" type="line"/>
      <point x="180" y="-109" type="line"/>
    </contour>
    <contour>
      <point x="459" y="1618" type="line"/>
      <point x="630" y="1618" type="line"/>
      <point x="577" y="1424" type="line"/>
      <point x="556" y="1428" type="line"/>
      <point x="536" y="1349" type="line"/>
      <point x="428" y="1417" type="line"/>
      <point x="436" y="1455" type="line"/>
      <point x="416" y="1460" type="line"/>
    </contour>
  </outline>
</glyph>
<glyph name="dieresiscombstack.case" format="2">
  <advance width="712"/>
  <anchor x="356" y="1536" name="_top"/>
  <anchor x="356" y="1841" name="top"/>
  <outline>
    <contour>
      <point x="10" y="1727" type="qcurve" smooth="yes"/>
      <point x="10" y="1782"/>
      <point x="70" y="1841"/>
      <point x="126" y="1841" type="qcurve" smooth="yes"/>
      <point x="179" y="1841"/>
      <point x="242" y="1778"/>
      <point x="242" y="1727" type="qcurve" smooth="yes"/>
      <point x="242" y="1673"/>
      <point x="183" y="1614"/>
      <point x="126" y="1614" type="qcurve" smooth="yes"/>
      <point x="73" y="1614"/>
      <point x="10" y="1676"/>
    </contour>
    <contour>
      <point x="470" y="1727" type="qcurve" smooth="yes"/>
      <point x="470" y="1782"/>
      <point x="530" y="1841"/>
      <point x="586" y="1841" type="qcurve" smooth="yes"/>
      <point x="639" y="1841"/>
      <point x="702" y="1778"/>
      <point x="702" y="1727" type="qcurve" smooth="yes"/>
      <point x="702" y="1673"/>
      <point x="643" y="1614"/>
      <point x="586" y="1614" type="qcurve" smooth="yes"/>
      <point x="533" y="1614"/>
      <point x="470" y="1676"/>
    </contour>
  </outline>
</glyph>
<glyph name="gravecomb.case" format="2">
  <advance width="369"/>
  <anchor x="291" y="1455" name="_top"/>
  <anchor x="291" y="1974" name="top"/>
  <outline>
    <contour>
      <point x="247" y="1600" type="line"/>
      <point x="10" y="1876" type="line"/>
      <point x="167" y="1974" type="line"/>
      <point x="359" y="1675" type="line"/>
    </contour>
  </outline>
</glyph>
<glyph name="hookabovecombstack.case" format="2">
  <advance width="477"/>
  <anchor x="270" y="1536" name="_top"/>
  <anchor x="270" y="1968" name="top"/>
  <outline>
    <contour>
      <point x="118" y="1554" type="line"/>
      <point x="118" y="1601" type="line" smooth="yes"/>
      <point x="118" y="1646"/>
      <point x="170" y="1696"/>
      <point x="237" y="1707" type="qcurve" smooth="yes"/>
      <point x="281" y="1714"/>
      <point x="313" y="1742"/>
      <point x="313" y="1778" type="qcurve" smooth="yes"/>
      <point x="313" y="1807"/>
      <point x="271" y="1833"/>
      <point x="222" y="1833" type="qcurve" smooth="yes"/>
      <point x="166" y="1833"/>
      <point x="67" y="1804"/>
      <point x="58" y="1797" type="qcurve"/>
      <point x="10" y="1916" type="line"/>
      <point x="41" y="1933"/>
      <point x="177" y="1968"/>
      <point x="251" y="1968" type="qcurve" smooth="yes"/>
      <point x="357" y="1968"/>
      <point x="467" y="1869"/>
      <point x="467" y="1785" type="qcurve" smooth="yes"/>
      <point x="467" y="1698"/>
      <point x="374" y="1607"/>
      <point x="267" y="1597" type="qcurve"/>
      <point x="267" y="1554" type="line"/>
    </contour>
  </outline>
</glyph>
<glyph name="naira.rvrn" format="2">
  <advance width="1060"/>
  <outline>
    <contour>
      <point x="937" y="1456" type="line"/>
      <point x="937" y="0" type="line"/>
      <point x="756" y="0" type="line"/>
      <point x="285" y="1142" type="line"/>
      <point x="263" y="1253" type="line"/>
      <point x="251" y="1253" type="line"/>
      <point x="264" y="1125" type="line"/>
      <point x="264" y="0" type="line"/>
      <point x="114" y="0" type="line"/>
      <point x="114" y="1456" type="line"/>
      <point x="300" y="1456" type="line"/>
      <point x="754" y="347" type="line"/>
      <point x="783" y="227" type="line"/>
      <point x="797" y="230" type="line"/>
      <point x="787" y="351" type="line"/>
      <point x="787" y="1456" type="line"/>
    </contour>
    <contour>
      <point x="839" y="977" type="line"/>
      <point x="858" y="977" type="line"/>
      <point x="858" y="987" type="line"/>
      <point x="1050" y="989" type="line"/>
      <point x="1050" y="852" type="line"/>
      <point x="858" y="850" type="line"/>
      <point x="858" y="855" type="line"/>
      <point x="839" y="855" type="line"/>
    </contour>
    <contour>
      <point x="10" y="850" type="line"/>
      <point x="10" y="987" type="line"/>
      <point x="192" y="987" type="line"/>
      <point x="192" y="977" type="line"/>
      <point x="207" y="977" type="line"/>
      <point x="207" y="855" type="line"/>
      <point x="192" y="855" type="line"/>
      <point x="192" y="850" type="line"/>
    </contour>
    <contour>
      <point x="839" y="672" type="line"/>
      <point x="858" y="672" type="line"/>
      <point x="858" y="677" type="line"/>
      <point x="1050" y="679" type="line"/>
      <point x="1050" y="542" type="line"/>
      <point x="858" y="540" type="line"/>
      <point x="858" y="550" type="line"/>
      <point x="839" y="550" type="line"/>
    </contour>
    <contour>
      <point x="10" y="540" type="line"/>
      <point x="10" y="677" type="line"/>
      <point x="192" y="677" type="line"/>
      <point x="192" y="672" type="line"/>
      <point x="207" y="672" type="line"/>
      <point x="207" y="550" type="line"/>
      <point x="192" y="550" type="line"/>
      <point x="192" y="540" type="line"/>
    </contour>
  </outline>
</glyph>
<glyph name="tildecomb.case" format="2">
  <advance width="854"/>
  <anchor x="417" y="1456" name="_top"/>
  <anchor x="417" y="1892" name="top"/>
  <outline>
    <contour>
      <point x="10" y="1710" type="line"/>
      <point x="47" y="1779"/>
      <point x="198" y="1892"/>
      <point x="275" y="1892" type="qcurve" smooth="yes"/>
      <point x="321" y="1892"/>
      <point x="403" y="1862"/>
      <point x="445" y="1834" type="qcurve" smooth="yes"/>
      <point x="475" y="1816"/>
      <point x="572" y="1760"/>
      <point x="619" y="1760" type="qcurve" smooth="yes"/>
      <point x="665" y="1760"/>
      <point x="750" y="1817"/>
      <point x="776" y="1856" type="qcurve"/>
      <point x="844" y="1771" type="line"/>
      <point x="802" y="1689"/>
      <point x="663" y="1600"/>
      <point x="600" y="1600" type="qcurve" smooth="yes"/>
      <point x="547" y="1600"/>
      <point x="440" y="1649"/>
      <point x="408" y="1671" type="qcurve" smooth="yes"/>
      <point x="372" y="1696"/>
      <point x="289" y="1734"/>
      <point x="256" y="1734" type="qcurve" smooth="yes"/>
      <point x="203" y="1734"/>
      <point x="105" y="1655"/>
      <point x="85" y="1625" type="qcurve"/>
    </contour>
  </outline>
</glyph>
